<?xml version="1.0" standalone="no"?>
<!DOCTYPE svg PUBLIC "-//W3C//DTD SVG 20010904//EN"
 "http://www.w3.org/TR/2001/REC-SVG-20010904/DTD/svg10.dtd">
<svg version="1.0" xmlns="http://www.w3.org/2000/svg"
 width="512.000000pt" height="512.000000pt" viewBox="0 0 512.000000 512.000000"
 preserveAspectRatio="xMidYMid meet">

<g transform="translate(0.000000,512.000000) scale(0.100000,-0.100000)"
fill="#000000" stroke="none">
<path d="M1790 5109 c-359 -37 -733 -188 -1020 -412 -96 -75 -253 -230 -330
-327 -243 -305 -391 -670 -430 -1059 -13 -136 -13 -1366 0 -1502 40 -401 200
-784 452 -1084 194 -230 399 -391 663 -521 214 -105 443 -170 679 -193 142
-14 1368 -15 1507 -1 237 24 466 88 677 190 629 304 1053 911 1122 1609 13
136 13 1366 0 1502 -61 613 -391 1154 -912 1493 -251 163 -574 275 -887 306
-125 12 -1398 11 -1521 -1z m100 -784 c42 -22 104 -98 139 -170 33 -71 50
-126 195 -660 100 -368 154 -550 162 -543 11 12 103 282 238 698 81 250 161
488 178 527 33 80 68 117 126 132 70 19 267 33 373 27 136 -7 206 -29 236 -75
29 -42 30 -99 3 -133 -29 -37 -38 -91 -52 -313 -17 -275 -17 -1261 0 -1455 35
-391 86 -628 155 -732 15 -22 50 -47 109 -77 78 -40 96 -45 171 -49 102 -5
175 13 236 60 90 69 105 78 131 78 35 0 89 -37 112 -75 9 -17 24 -71 32 -120
8 -50 21 -134 30 -187 9 -55 33 -142 56 -202 45 -118 49 -157 21 -202 -29 -48
-80 -66 -210 -75 -228 -16 -528 17 -715 81 -480 162 -753 514 -840 1083 -13
87 -14 90 -25 61 -23 -60 -47 -98 -74 -118 -26 -19 -44 -21 -247 -24 -186 -3
-223 -1 -250 13 -39 20 -70 70 -71 115 -1 19 -5 46 -9 60 -6 20 -8 15 -10 -25
0 -27 -7 -130 -14 -227 -13 -199 -20 -217 -90 -252 -33 -16 -64 -18 -274 -19
-271 -1 -339 8 -384 53 -35 36 -36 69 -4 198 31 124 53 256 65 402 13 141 34
779 29 875 l-3 70 -21 -40 c-27 -52 -33 -75 -49 -217 -16 -130 -31 -170 -78
-198 -93 -57 -252 14 -433 195 -252 251 -340 634 -218 942 84 210 273 377 519
458 114 37 229 54 445 66 107 5 197 13 200 15 8 9 79 -5 110 -21z"/>
<path d="M1789 4245 c-3 -2 -93 -9 -200 -15 -315 -16 -464 -53 -617 -152 -219
-143 -322 -342 -309 -598 9 -172 69 -336 172 -470 95 -123 283 -260 357 -260
37 0 42 15 56 157 13 132 35 199 92 283 23 34 38 66 34 70 -5 5 -46 24 -92 43
-135 57 -169 81 -199 140 -34 69 -43 169 -19 231 20 52 80 110 144 138 126 56
216 -31 267 -259 43 -188 50 -361 37 -839 -16 -557 -30 -698 -89 -951 -15 -62
-24 -115 -21 -119 15 -14 236 -25 386 -19 136 6 164 10 171 24 11 21 29 330
37 648 4 138 11 258 16 265 15 23 37 -20 79 -157 22 -71 56 -178 76 -238 19
-59 38 -128 41 -155 l7 -47 202 -3 c192 -2 203 -1 213 17 26 50 103 273 145
422 39 138 62 200 66 178 0 -2 4 -119 9 -259 5 -149 15 -299 25 -360 54 -338
154 -561 334 -741 158 -158 385 -272 625 -313 202 -36 523 -43 599 -14 34 13
34 28 -3 119 -45 108 -57 158 -80 323 -19 133 -39 206 -57 206 -3 0 -23 -16
-44 -35 -104 -93 -287 -131 -430 -89 -68 21 -176 75 -218 109 -103 88 -174
360 -213 825 -17 203 -17 1221 0 1483 14 210 25 275 55 330 15 26 18 40 10 48
-23 23 -206 34 -348 21 -156 -14 -179 -21 -198 -59 -18 -35 -78 -211 -257
-758 -157 -481 -236 -688 -262 -693 -24 -5 -77 111 -133 293 -26 83 -100 346
-165 586 -118 434 -148 523 -196 586 -32 42 -90 74 -105 58z"/>
<path d="M1217 3705 c-20 -14 -44 -39 -52 -55 -20 -39 -19 -106 4 -156 19 -42
43 -56 188 -113 l52 -20 -5 32 c-30 183 -59 277 -94 315 -27 28 -47 28 -93 -3z"/>
</g>
</svg>
