<svg xmlns="http://www.w3.org/2000/svg" xmlns:xlink="http://www.w3.org/1999/xlink" width="500" zoomAndPan="magnify" viewBox="0 0 375 374.999991" height="500" preserveAspectRatio="xMidYMid meet" version="1.0"><defs><g/><clipPath id="43e286ed95"><path d="M 65.828125 65.828125 L 309.171875 65.828125 L 309.171875 309.171875 L 65.828125 309.171875 Z M 65.828125 65.828125 " clip-rule="nonzero"/></clipPath><clipPath id="9bd5884f72"><path d="M 187.5 309.171875 C 155.015625 309.171875 124.425781 296.527344 101.472656 273.527344 C 78.472656 250.574219 65.828125 219.984375 65.828125 187.5 C 65.828125 155.015625 78.472656 124.425781 101.472656 101.472656 C 124.425781 78.472656 155.015625 65.828125 187.5 65.828125 C 219.984375 65.828125 250.574219 78.472656 273.527344 101.472656 C 296.527344 124.476562 309.171875 155.015625 309.171875 187.5 C 309.171875 219.984375 296.527344 250.574219 273.527344 273.527344 C 250.574219 296.527344 219.984375 309.171875 187.5 309.171875 Z M 187.5 73.121094 C 156.960938 73.121094 128.21875 85.035156 106.628906 106.628906 C 85.035156 128.21875 73.121094 156.960938 73.121094 187.5 C 73.121094 218.039062 85.035156 246.78125 106.628906 268.371094 C 128.21875 289.964844 156.960938 301.878906 187.5 301.878906 C 218.039062 301.878906 246.78125 289.964844 268.371094 268.371094 C 289.964844 246.78125 301.878906 218.039062 301.878906 187.5 C 301.878906 156.960938 289.964844 128.21875 268.371094 106.628906 C 246.78125 85.035156 218.039062 73.121094 187.5 73.121094 Z M 187.5 73.121094 " clip-rule="nonzero"/></clipPath></defs><g clip-path="url(#43e286ed95)"><g clip-path="url(#9bd5884f72)"><path fill="#ffffff" d="M 65.828125 65.828125 L 309.171875 65.828125 L 309.171875 309.171875 L 65.828125 309.171875 Z M 65.828125 65.828125 " fill-opacity="1" fill-rule="nonzero"/></g></g><g fill="#ffffff" fill-opacity="1"><g transform="translate(77.654508, 228.583443)"><g><path d="M 152.625 22.484375 C 153.175781 22.484375 153.734375 22.484375 154.296875 22.484375 L 154.296875 23.859375 C 151.703125 24.234375 148.804688 24.421875 145.609375 24.421875 C 142.421875 24.421875 138.488281 23.722656 133.8125 22.328125 C 129.144531 20.941406 124.914062 18.351562 121.125 14.5625 C 113.351562 6.789062 108.632812 -3.285156 106.96875 -15.671875 L 98.515625 -77.421875 L 69.65625 -12.203125 C 67.0625 -6.566406 65.488281 -1.851562 64.9375 1.9375 L 63.546875 1.9375 L 27.609375 -76.171875 L 21.5 -7.21875 C 21.320312 -5.644531 21.8125 -4.253906 22.96875 -3.046875 C 24.125 -1.847656 25.394531 -1.25 26.78125 -1.25 L 29 -1.25 L 29 0 L 2.078125 0 L 2.078125 -1.390625 L 4.296875 -1.390625 C 6.796875 -1.390625 8.992188 -2.148438 10.890625 -3.671875 C 12.785156 -5.203125 13.96875 -7.21875 14.4375 -9.71875 L 23.171875 -85.46875 C 15.035156 -101.46875 5.273438 -109.46875 -6.109375 -109.46875 C -7.117188 -109.46875 -8.179688 -109.421875 -9.296875 -109.328125 L -9.296875 -110.71875 C -6.796875 -111.363281 -4.757812 -111.6875 -3.1875 -111.6875 C -1.613281 -111.6875 0.09375 -111.617188 1.9375 -111.484375 C 3.789062 -111.347656 5.960938 -110.910156 8.453125 -110.171875 C 10.953125 -109.429688 13.3125 -108.34375 15.53125 -106.90625 C 17.757812 -105.46875 19.703125 -103.984375 21.359375 -102.453125 C 23.023438 -100.929688 24.597656 -99.25 26.078125 -97.40625 C 28.578125 -94.070312 30.566406 -90.878906 32.046875 -87.828125 L 65.484375 -15.40625 L 102.8125 -99.0625 L 104.0625 -99.0625 L 116.96875 -16.921875 C 118.90625 -3.972656 123.085938 5.828125 129.515625 12.484375 C 135.953125 19.148438 143.65625 22.484375 152.625 22.484375 Z M 152.625 22.484375 "/></g></g></g><g fill="#ffffff" fill-opacity="1"><g transform="translate(206.823675, 228.583443)"><g><path d="M 131.53125 23.59375 C 127.644531 24.601562 124.195312 25.109375 121.1875 25.109375 C 118.1875 25.109375 115.53125 24.921875 113.21875 24.546875 C 110.90625 24.179688 108.429688 23.46875 105.796875 22.40625 C 103.160156 21.34375 100.6875 20.117188 98.375 18.734375 C 96.0625 17.347656 93.75 15.632812 91.4375 13.59375 C 87.175781 10.175781 83.3125 6.476562 79.84375 2.5 C 76.375 -1.476562 69.691406 -8.945312 59.796875 -19.90625 C 49.898438 -30.875 43.332031 -38.160156 40.09375 -41.765625 C 36.863281 -45.367188 34.367188 -47.265625 32.609375 -47.453125 L 32.609375 -48.84375 C 37.972656 -48.84375 41.554688 -48.957031 43.359375 -49.1875 C 45.160156 -49.414062 47.078125 -49.832031 49.109375 -50.4375 C 51.148438 -51.039062 52.863281 -51.847656 54.25 -52.859375 C 59.707031 -56.378906 62.4375 -62.207031 62.4375 -70.34375 C 62.4375 -77.09375 60.929688 -82.503906 57.921875 -86.578125 C 54.921875 -90.648438 50.691406 -92.734375 45.234375 -92.828125 L 28.03125 -92.828125 L 28.03125 -10.125 C 28.03125 -7.8125 28.882812 -5.773438 30.59375 -4.015625 C 32.300781 -2.265625 34.40625 -1.390625 36.90625 -1.390625 L 38.578125 -1.390625 L 38.71875 0 L 8.328125 0 L 8.328125 -1.390625 L 10.125 -1.390625 C 12.4375 -1.390625 14.472656 -2.21875 16.234375 -3.875 C 17.992188 -5.539062 18.921875 -7.578125 19.015625 -9.984375 L 19.015625 -87 C 18.921875 -89.40625 18.015625 -91.460938 16.296875 -93.171875 C 14.585938 -94.878906 12.53125 -95.734375 10.125 -95.734375 L 8.328125 -95.734375 L 8.328125 -97.125 L 45.78125 -97.125 C 53.925781 -97.125 60.472656 -94.832031 65.421875 -90.25 C 70.367188 -85.675781 72.84375 -79.617188 72.84375 -72.078125 C 72.84375 -64.535156 70.578125 -58.054688 66.046875 -52.640625 C 61.515625 -47.234375 55.960938 -44.53125 49.390625 -44.53125 C 49.390625 -44.53125 49.34375 -44.53125 49.25 -44.53125 C 52.394531 -41.207031 55.957031 -37.328125 59.9375 -32.890625 C 75.9375 -15.210938 86.203125 -4.109375 90.734375 0.421875 C 95.273438 4.953125 99.28125 8.671875 102.75 11.578125 C 106.21875 14.492188 109.289062 16.644531 111.96875 18.03125 C 117.425781 21 122.835938 22.484375 128.203125 22.484375 C 129.316406 22.484375 130.425781 22.390625 131.53125 22.203125 Z M 131.53125 23.59375 "/></g></g></g></svg>