<svg xmlns="http://www.w3.org/2000/svg" xmlns:xlink="http://www.w3.org/1999/xlink" width="500" zoomAndPan="magnify" viewBox="0 0 375 374.999991" height="500" preserveAspectRatio="xMidYMid meet" version="1.0"><defs><g/><clipPath id="6706b487e5"><path d="M 16.65625 16.65625 L 358.34375 16.65625 L 358.34375 358.34375 L 16.65625 358.34375 Z M 16.65625 16.65625 " clip-rule="nonzero"/></clipPath><clipPath id="392b6ec80b"><path d="M 187.5 358.34375 C 141.886719 358.34375 98.9375 340.589844 66.707031 308.292969 C 34.410156 276.0625 16.65625 233.113281 16.65625 187.5 C 16.65625 141.886719 34.410156 98.9375 66.707031 66.707031 C 98.9375 34.410156 141.886719 16.65625 187.5 16.65625 C 233.113281 16.65625 276.0625 34.410156 308.292969 66.707031 C 340.589844 99.003906 358.34375 141.886719 358.34375 187.5 C 358.34375 233.113281 340.589844 276.0625 308.292969 308.292969 C 276.0625 340.589844 233.113281 358.34375 187.5 358.34375 Z M 187.5 26.898438 C 144.617188 26.898438 104.261719 43.628906 73.945312 73.945312 C 43.628906 104.261719 26.898438 144.617188 26.898438 187.5 C 26.898438 230.382812 43.628906 270.738281 73.945312 301.054688 C 104.261719 331.371094 144.617188 348.101562 187.5 348.101562 C 230.382812 348.101562 270.738281 331.371094 301.054688 301.054688 C 331.371094 270.738281 348.101562 230.382812 348.101562 187.5 C 348.101562 144.617188 331.371094 104.261719 301.054688 73.945312 C 270.738281 43.628906 230.382812 26.898438 187.5 26.898438 Z M 187.5 26.898438 " clip-rule="nonzero"/></clipPath></defs><rect x="-37.5" width="450" fill="#ffffff" y="-37.499999" height="449.999989" fill-opacity="1"/><rect x="-37.5" width="450" fill="#000000" y="-37.499999" height="449.999989" fill-opacity="1"/><g clip-path="url(#6706b487e5)"><g clip-path="url(#392b6ec80b)"><path fill="#ffffff" d="M 16.65625 16.65625 L 358.34375 16.65625 L 358.34375 358.34375 L 16.65625 358.34375 Z M 16.65625 16.65625 " fill-opacity="1" fill-rule="nonzero"/></g></g><g fill="#ffffff" fill-opacity="1"><g transform="translate(33.263488, 245.18617)"><g><path d="M 214.3125 31.5625 C 215.09375 31.5625 215.875 31.5625 216.65625 31.5625 L 216.65625 33.515625 C 213.007812 34.035156 208.945312 34.296875 204.46875 34.296875 C 199.988281 34.296875 194.46875 33.316406 187.90625 31.359375 C 181.351562 29.410156 175.410156 25.773438 170.078125 20.453125 C 159.171875 9.546875 152.550781 -4.609375 150.21875 -22.015625 L 138.328125 -108.71875 L 97.796875 -17.140625 C 94.160156 -9.222656 91.953125 -2.597656 91.171875 2.734375 L 89.234375 2.734375 L 38.765625 -106.953125 L 30.203125 -10.125 C 29.941406 -7.914062 30.617188 -5.96875 32.234375 -4.28125 C 33.859375 -2.59375 35.648438 -1.75 37.609375 -1.75 L 40.71875 -1.75 L 40.71875 0 L 2.921875 0 L 2.921875 -1.953125 L 6.046875 -1.953125 C 9.546875 -1.953125 12.625 -3.019531 15.28125 -5.15625 C 17.945312 -7.300781 19.609375 -10.128906 20.265625 -13.640625 L 32.53125 -120.015625 C 21.101562 -142.484375 7.398438 -153.71875 -8.578125 -153.71875 C -10.003906 -153.71875 -11.492188 -153.65625 -13.046875 -153.53125 L -13.046875 -155.46875 C -9.546875 -156.382812 -6.691406 -156.84375 -4.484375 -156.84375 C -2.273438 -156.84375 0.125 -156.742188 2.71875 -156.546875 C 5.320312 -156.347656 8.375 -155.726562 11.875 -154.6875 C 15.382812 -153.65625 18.695312 -152.128906 21.8125 -150.109375 C 24.9375 -148.097656 27.664062 -146.019531 30 -143.875 C 32.34375 -141.738281 34.550781 -139.367188 36.625 -136.765625 C 40.132812 -132.085938 42.925781 -127.609375 45 -123.328125 L 91.953125 -21.625 L 144.375 -139.109375 L 146.125 -139.109375 L 164.234375 -23.765625 C 166.960938 -5.585938 172.835938 8.175781 181.859375 17.53125 C 190.890625 26.882812 201.707031 31.5625 214.3125 31.5625 Z M 214.3125 31.5625 "/></g></g></g><g fill="#ffffff" fill-opacity="1"><g transform="translate(214.632796, 245.18617)"><g><path d="M 184.703125 33.125 C 179.242188 34.550781 174.398438 35.265625 170.171875 35.265625 C 165.953125 35.265625 162.21875 35.003906 158.96875 34.484375 C 155.726562 33.960938 152.253906 32.953125 148.546875 31.453125 C 144.847656 29.960938 141.375 28.242188 138.125 26.296875 C 134.882812 24.347656 131.640625 21.945312 128.390625 19.09375 C 122.410156 14.289062 116.984375 9.09375 112.109375 3.5 C 107.242188 -2.082031 97.863281 -12.566406 83.96875 -27.953125 C 70.070312 -43.347656 60.847656 -53.578125 56.296875 -58.640625 C 51.753906 -63.703125 48.25 -66.363281 45.78125 -66.625 L 45.78125 -68.578125 C 53.3125 -68.578125 58.34375 -68.738281 60.875 -69.0625 C 63.414062 -69.382812 66.113281 -69.96875 68.96875 -70.8125 C 71.820312 -71.664062 74.222656 -72.804688 76.171875 -74.234375 C 83.835938 -79.171875 87.671875 -87.351562 87.671875 -98.78125 C 87.671875 -108.257812 85.5625 -115.851562 81.34375 -121.5625 C 77.125 -127.28125 71.179688 -130.207031 63.515625 -130.34375 L 39.359375 -130.34375 L 39.359375 -14.21875 C 39.359375 -10.976562 40.554688 -8.125 42.953125 -5.65625 C 45.359375 -3.1875 48.316406 -1.953125 51.828125 -1.953125 L 54.15625 -1.953125 L 54.359375 0 L 11.6875 0 L 11.6875 -1.953125 L 14.21875 -1.953125 C 17.46875 -1.953125 20.328125 -3.117188 22.796875 -5.453125 C 25.265625 -7.796875 26.5625 -10.65625 26.6875 -14.03125 L 26.6875 -122.15625 C 26.5625 -125.53125 25.296875 -128.421875 22.890625 -130.828125 C 20.484375 -133.234375 17.59375 -134.4375 14.21875 -134.4375 L 11.6875 -134.4375 L 11.6875 -136.375 L 64.296875 -136.375 C 75.722656 -136.375 84.910156 -133.160156 91.859375 -126.734375 C 98.804688 -120.304688 102.28125 -111.796875 102.28125 -101.203125 C 102.28125 -90.617188 99.097656 -81.53125 92.734375 -73.9375 C 86.367188 -66.34375 78.578125 -62.546875 69.359375 -62.546875 C 69.359375 -62.546875 69.289062 -62.546875 69.15625 -62.546875 C 73.570312 -57.867188 78.578125 -52.410156 84.171875 -46.171875 C 106.640625 -21.367188 121.054688 -5.785156 127.421875 0.578125 C 133.785156 6.941406 139.398438 12.171875 144.265625 16.265625 C 149.140625 20.359375 153.457031 23.378906 157.21875 25.328125 C 164.882812 29.484375 172.484375 31.5625 180.015625 31.5625 C 181.578125 31.5625 183.140625 31.429688 184.703125 31.171875 Z M 184.703125 33.125 "/></g></g></g></svg>